<?xml version="1.0" encoding="UTF-8"?>
<svg width="20px" height="18px" viewBox="0 0 20 18" version="1.1" xmlns="http://www.w3.org/2000/svg" xmlns:xlink="http://www.w3.org/1999/xlink">
    <!-- Generator: Sketch 41.2 (35397) - http://www.bohemiancoding.com/sketch -->
    <title>email - Material Icons</title>
    <desc>Created with Sketch.</desc>
    <defs></defs>
    <g id="Resume" stroke="none" stroke-width="1" fill="none" fill-rule="evenodd">
        <g id="md-resume" transform="translate(-682.000000, -651.000000)" fill="#FFFFFF">
            <path d="M700.015625,656.015625 L700.015625,654 L692,659.015625 L683.984375,654 L683.984375,656.015625 L692,660.984375 L700.015625,656.015625 Z M700.015625,651.984375 C700.546878,651.984375 701.007811,652.187498 701.398438,652.59375 C701.789064,653.000002 701.984375,653.468747 701.984375,654 L701.984375,666 C701.984375,666.531253 701.789064,666.999998 701.398438,667.40625 C701.007811,667.812502 700.546878,668.015625 700.015625,668.015625 L683.984375,668.015625 C683.453122,668.015625 682.992189,667.812502 682.601562,667.40625 C682.210936,666.999998 682.015625,666.531253 682.015625,666 L682.015625,654 C682.015625,653.468747 682.210936,653.000002 682.601562,652.59375 C682.992189,652.187498 683.453122,651.984375 683.984375,651.984375 L700.015625,651.984375 Z" id="email---Material-Icons"></path>
        </g>
    </g>
</svg>