<?xml version="1.0" encoding="UTF-8"?>
<svg width="22px" height="23px" viewBox="0 0 22 23" version="1.1" xmlns="http://www.w3.org/2000/svg" xmlns:xlink="http://www.w3.org/1999/xlink">
    <!-- Generator: Sketch 41.2 (35397) - http://www.bohemiancoding.com/sketch -->
    <title>link - FontAwesome</title>
    <desc>Created with Sketch.</desc>
    <defs></defs>
    <g id="Resume" stroke="none" stroke-width="1" fill="none" fill-rule="evenodd">
        <g id="md-resume" transform="translate(-681.000000, -714.000000)" fill="#FFFFFF">
            <path d="M700.357143,730.714286 C700.357143,730.357141 700.232144,730.053573 699.982143,729.803571 L697.196429,727.017857 C696.946427,726.767856 696.642859,726.642857 696.285714,726.642857 C695.910712,726.642857 695.589287,726.785713 695.321429,727.071429 C695.348214,727.098214 695.433035,727.180803 695.575893,727.319196 C695.718751,727.45759 695.814732,727.553571 695.863839,727.607143 C695.912947,727.660715 695.97991,727.745535 696.064732,727.861607 C696.149554,727.977679 696.207589,728.091517 696.238839,728.203125 C696.270089,728.314733 696.285714,728.437499 696.285714,728.571429 C696.285714,728.928573 696.160716,729.232142 695.910714,729.482143 C695.660713,729.732144 695.357145,729.857143 695,729.857143 C694.866071,729.857143 694.743304,729.841518 694.631696,729.810268 C694.520089,729.779018 694.406251,729.720983 694.290179,729.636161 C694.174107,729.551339 694.089286,729.484375 694.035714,729.435268 C693.982143,729.38616 693.886161,729.290179 693.747768,729.147321 C693.609374,729.004464 693.526786,728.919643 693.5,728.892857 C693.205356,729.169644 693.058036,729.495534 693.058036,729.870536 C693.058036,730.22768 693.183034,730.531249 693.433036,730.78125 L696.191964,733.553571 C696.433037,733.794644 696.736605,733.915179 697.102679,733.915179 C697.459823,733.915179 697.763392,733.799108 698.013393,733.566964 L699.982143,731.611607 C700.232144,731.361606 700.357143,731.062502 700.357143,730.714286 L700.357143,730.714286 Z M690.941964,721.272321 C690.941964,720.915177 690.816966,720.611608 690.566964,720.361607 L687.808036,717.589286 C687.558034,717.339284 687.254466,717.214286 686.897321,717.214286 C686.549105,717.214286 686.245537,717.33482 685.986607,717.575893 L684.017857,719.53125 C683.767856,719.781251 683.642857,720.080355 683.642857,720.428571 C683.642857,720.785716 683.767856,721.089284 684.017857,721.339286 L686.803571,724.125 C687.044644,724.366073 687.348212,724.486607 687.714286,724.486607 C688.089288,724.486607 688.410713,724.348216 688.678571,724.071429 C688.651786,724.044643 688.566965,723.962054 688.424107,723.823661 C688.281249,723.685267 688.185268,723.589286 688.136161,723.535714 C688.087053,723.482143 688.02009,723.397322 687.935268,723.28125 C687.850446,723.165178 687.792411,723.05134 687.761161,722.939732 C687.729911,722.828124 687.714286,722.705358 687.714286,722.571429 C687.714286,722.214284 687.839284,721.910716 688.089286,721.660714 C688.339287,721.410713 688.642855,721.285714 689,721.285714 C689.133929,721.285714 689.256696,721.301339 689.368304,721.332589 C689.479911,721.363839 689.593749,721.421875 689.709821,721.506696 C689.825893,721.591518 689.910714,721.658482 689.964286,721.707589 C690.017857,721.756697 690.113839,721.852678 690.252232,721.995536 C690.390626,722.138394 690.473214,722.223214 690.5,722.25 C690.794644,721.973213 690.941964,721.647323 690.941964,721.272321 L690.941964,721.272321 Z M702.928571,730.714286 C702.928571,731.78572 702.549111,732.691961 701.790179,733.433036 L699.821429,735.388393 C699.080353,736.129468 698.174112,736.5 697.102679,736.5 C696.022316,736.5 695.111611,736.12054 694.370536,735.361607 L691.611607,732.589286 C690.870532,731.848211 690.5,730.94197 690.5,729.870536 C690.5,728.772316 690.892853,727.83929 691.678571,727.071429 L690.5,725.892857 C689.732139,726.678575 688.803577,727.071429 687.714286,727.071429 C686.642852,727.071429 685.732147,726.696432 684.982143,725.946429 L682.196429,723.160714 C681.446425,722.410711 681.071429,721.500005 681.071429,720.428571 C681.071429,719.357138 681.450889,718.450897 682.209821,717.709821 L684.178571,715.754464 C684.919647,715.013389 685.825888,714.642857 686.897321,714.642857 C687.977684,714.642857 688.888389,715.022318 689.629464,715.78125 L692.388393,718.553571 C693.129468,719.294647 693.5,720.200888 693.5,721.272321 C693.5,722.370541 693.107147,723.303568 692.321429,724.071429 L693.5,725.25 C694.267861,724.464282 695.196423,724.071429 696.285714,724.071429 C697.357148,724.071429 698.267853,724.446425 699.017857,725.196429 L701.803571,727.982143 C702.553575,728.732147 702.928571,729.642852 702.928571,730.714286 L702.928571,730.714286 Z" id="link---FontAwesome"></path>
        </g>
    </g>
</svg>