<?xml version="1.0" encoding="UTF-8"?>
<svg width="18px" height="18px" viewBox="0 0 18 18" version="1.1" xmlns="http://www.w3.org/2000/svg" xmlns:xlink="http://www.w3.org/1999/xlink">
    <!-- Generator: Sketch 41.2 (35397) - http://www.bohemiancoding.com/sketch -->
    <title>local-phone - Material Icons</title>
    <desc>Created with Sketch.</desc>
    <defs></defs>
    <g id="Resume" stroke="none" stroke-width="1" fill="none" fill-rule="evenodd">
        <g id="md-resume" transform="translate(-683.000000, -585.000000)" fill="#FFFFFF">
            <path d="M686.609375,592.78125 C688.109383,595.687515 690.312485,597.890617 693.21875,599.390625 L695.421875,597.1875 C695.734377,596.874998 696.078123,596.796874 696.453125,596.953125 C697.578131,597.328127 698.765619,597.515625 700.015625,597.515625 C700.296876,597.515625 700.531249,597.609374 700.71875,597.796875 C700.906251,597.984376 701,598.218749 701,598.5 L701,602.015625 C701,602.296876 700.906251,602.531249 700.71875,602.71875 C700.531249,602.906251 700.296876,603 700.015625,603 C695.328102,603 691.320329,601.335954 687.992188,598.007812 C684.664046,594.679671 683,590.671898 683,585.984375 C683,585.703124 683.093749,585.468751 683.28125,585.28125 C683.468751,585.093749 683.703124,585 683.984375,585 L687.5,585 C687.781251,585 688.015624,585.093749 688.203125,585.28125 C688.390626,585.468751 688.484375,585.703124 688.484375,585.984375 C688.484375,587.234381 688.671873,588.421869 689.046875,589.546875 C689.171876,589.953127 689.093751,590.296874 688.8125,590.578125 L686.609375,592.78125 Z" id="local-phone---Material-Icons"></path>
        </g>
    </g>
</svg>